<svg xmlns="http://www.w3.org/2000/svg" viewBox="0 0 48 32" width="48" height="32">
  <rect width="48" height="32" rx="4" fill="#006fcf"/>
  <path d="M5 16.5h3.3l.7-1.7.7 1.7h7.8v-1.3l.7 1.3h4l.7-1.4v1.4h12v-3l-.7-1 .7-1v-3h-7.2l-.6 1.3-.6-1.3h-8v1.3l-.8-1.3H12L9.6 14l-1.2-2.5h-3.4v9zm22.6-1.3h-1.9l-2.3-4.8v4.8h-2.5l-.5-1.2h-2.7l-.5 1.2h-1.5l2.3-5.3h2l2.2 5V10h2.2l2 4 1.9-4h2.2v5.2h-1.9zm-10.2-2l-.8-2-.8 2h1.6zm-10.2 2H5.4v-5.3h1.8l1.4 3.5 1.4-3.5h1.8v5.3h-1.1v-4.1l-1.6 4.1h-1l-1.6-4.1v4.1z" fill="#fff"/>
</svg>