<svg xmlns="http://www.w3.org/2000/svg" viewBox="0 0 48 32" width="48" height="32">
  <rect width="48" height="32" rx="4" fill="#000"/>
  <path d="M12.3 10.5c-.5.6-1.3 1-2 1-.1-.8.3-1.7.7-2.2.5-.6 1.3-1 2-1.1.1.9-.2 1.7-.7 2.3zm.7 1.2c-1.1-.1-2.1.6-2.6.6-.5 0-1.4-.6-2.3-.6-1.2 0-2.3.7-2.9 1.8-1.2 2.1-.3 5.3.9 7 .6.9 1.3 1.8 2.2 1.8.9 0 1.2-.6 2.3-.6 1 0 1.3.6 2.3.6.9 0 1.5-.8 2.1-1.7.7-1 .9-1.9.9-2-.1 0-1.8-.7-1.8-2.7 0-1.7 1.4-2.5 1.5-2.6-.8-1.2-2.1-1.4-2.6-1.6zm9.5-1.9h-2.8v9h1.4v-3.1h1.4c1.5 0 2.6-1 2.6-2.5s-1.1-2.4-2.6-2.4zm-.1 3.8h-1.3v-2.7h1.3c1 0 1.5.5 1.5 1.3s-.5 1.4-1.5 1.4zm6.4-1.2c-1.1 0-1.9.5-2.1 1.3l1.2.2c.2-.4.6-.6 1-.6.6 0 1 .3 1 .9v.4l-1.4.1c-1.3.1-2 .6-2 1.6s.8 1.6 1.8 1.6c.7 0 1.3-.3 1.6-.9h0v.8h1.3v-3.6c0-1.2-.9-1.8-2.4-1.8zm1.1 3.8c0 .6-.5 1.1-1.2 1.1-.5 0-.9-.3-.9-.7 0-.5.4-.7 1-.8l1.1-.1v.5zm5.7-3.7h-1.1l-1.6 5.2h-.1l-1.6-5.2H30l2.2 6.1-.1.4c-.2.5-.5.7-.9.7-.2 0-.3 0-.4 0v1.1c.1 0 .4.1.7.1 1 0 1.5-.4 1.9-1.5l2.4-6.9z" fill="#fff"/>
</svg>