<svg xmlns="http://www.w3.org/2000/svg" viewBox="0 0 48 32" width="48" height="32">
  <rect width="48" height="32" rx="4" fill="#fff" stroke="#e0e0e0"/>
  <path d="M22.4 16.4v3.7h-1.2v-9h3.1c.8 0 1.4.2 2 .7.5.5.8 1.1.8 1.8s-.3 1.4-.8 1.8c-.5.5-1.2.7-2 .7h-1.9zm0-4.2v3.1h2c.5 0 .9-.2 1.2-.4.3-.3.5-.7.5-1.1s-.2-.8-.5-1.1c-.3-.3-.7-.4-1.2-.4h-2zm7.5 1.5c.9 0 1.6.2 2.1.7.5.5.8 1.1.8 2v4h-1.1v-.9h0c-.5.7-1.1 1.1-2 1.1-.7 0-1.4-.2-1.8-.6-.5-.4-.7-.9-.7-1.5s.2-1.1.7-1.5c.5-.4 1.1-.5 1.9-.5.7 0 1.3.1 1.7.4v-.3c0-.5-.2-.8-.5-1.1-.3-.3-.7-.5-1.2-.5-.7 0-1.2.3-1.5.8l-1-.7c.5-.8 1.3-1.2 2.6-1.2zm-1.5 4.5c0 .3.1.6.4.8.3.2.6.4 1 .4.5 0 1-.2 1.4-.6.4-.4.6-.8.6-1.3-.4-.3-.9-.4-1.6-.4-.5 0-.9.1-1.2.3-.4.3-.6.5-.6.8zm9.7-4.3l-3.8 8.7h-1.2l1.4-3-2.5-5.7h1.3l1.8 4.3h0l1.7-4.3h1.3z" fill="#5f6368"/>
  <path d="M12.4 16c0-.4 0-.7-.1-1H7.5v2h2.8c-.1.6-.5 1.1-1 1.5v1.2h1.6c1-.9 1.5-2.2 1.5-3.7z" fill="#4285f4"/>
  <path d="M7.5 20.8c1.3 0 2.4-.4 3.3-1.2l-1.6-1.2c-.4.3-1 .5-1.7.5-1.3 0-2.4-.9-2.8-2h-1.6v1.3c.8 1.6 2.5 2.6 4.4 2.6z" fill="#34a853"/>
  <path d="M4.7 17c-.1-.4-.2-.7-.2-1.1s.1-.8.2-1.1V13.5H3.1c-.2.5-.4 1.1-.4 1.7s.1 1.1.4 1.6l1.6-1.3z" fill="#fbbc04"/>
  <path d="M7.5 12.9c.7 0 1.4.2 1.9.7l1.4-1.4c-.9-.8-2-1.3-3.3-1.3-1.9 0-3.6 1.1-4.4 2.6l1.6 1.3c.4-1.2 1.5-2 2.8-2z" fill="#ea4335"/>
</svg>