<svg xmlns="http://www.w3.org/2000/svg" viewBox="0 0 48 32" width="48" height="32">
  <rect width="48" height="32" rx="4" fill="#1a1f71"/>
  <path d="M19.3 21h-2.4l1.5-9.2h2.4L19.3 21zM15.3 11.8l-2.3 6.3-.3-1.3-.8-4.2s-.1-.8-1-1.1H7.5v.2s1 .2 2.2.9l1.8 6.4h2.5l3.8-9.2h-2.5v.1zM33.7 21h2.2l-1.9-9.2h-2c-.8 0-1 .6-1 .6L27.6 21h2.5l.5-1.4h3l.1 1.4zm-2.6-3.3l1.2-3.4.7 3.4h-1.9zM28.1 14l.3-2s-1-.4-2-.4c-1.1 0-3.7.5-3.7 2.8 0 2.2 3 2.2 3 3.4s-2.7 1-3.6.2l-.4 2s1 .5 2.5.5 3.9-.7 3.9-2.9c0-2.2-3-2.4-3-3.4s2.1-.8 3-.2z" fill="#fff"/>
</svg>